HIERARCHY
ROOT Hips
{
     OFFSET 105.63000 95.45170 -45.09680
     CHANNELS 6 Xposition Yposition Zposition Zrotation Xrotation Yrotation
     JOINT Spine
     {
          OFFSET 0.00000 11.89050 0.00000
          CHANNELS 3 Zrotation Xrotation Yrotation
          JOINT Spine1
          {
               OFFSET 0.00000 25.65740 0.12766
               CHANNELS 3 Zrotation Xrotation Yrotation
               JOINT HEad
               {
                    OFFSET 0.00000 8.73416 0.01134
                    CHANNELS 3 Zrotation Xrotation Yrotation
                    End Site
                    {
                         OFFSET -0.29000 12.77420 2.51395
                    }
               }
               JOINT LeftShoulder1
               {
                    OFFSET 8.99000 -0.36225 -0.22000
                    CHANNELS 3 Zrotation Xrotation Yrotation
                    JOINT LeftArm
                    {
                         OFFSET 10.28270 -0.00338 0.32212
                         CHANNELS 3 Zrotation Xrotation Yrotation
                         JOINT LeftForeArm
                         {
                              OFFSET 32.76690 0.09914 -1.42434
                              CHANNELS 3 Zrotation Xrotation Yrotation
                              JOINT LeftHand
                              {
                                   OFFSET 27.56430 0.08536 1.02216
                                   CHANNELS 3 Zrotation Xrotation Yrotation
                                   End Site
                                   {
                                        OFFSET 16.74430 -0.60000 1.50291
                                   }
                              }
                         }
                    }
               }
               JOINT RightShoulder
               {
                    OFFSET -8.99000 -0.36225 -0.22000
                    CHANNELS 3 Zrotation Xrotation Yrotation
                    JOINT RightArm
                    {
                         OFFSET -10.28270 -0.00338 0.32212
                         CHANNELS 3 Zrotation Xrotation Yrotation
                         JOINT RightForeArm
                         {
                              OFFSET -32.89710 0.09914 -1.42434
                              CHANNELS 3 Zrotation Xrotation Yrotation
                              JOINT RightHand
                              {
                                   OFFSET -27.49210 0.08536 1.02216
                                   CHANNELS 3 Zrotation Xrotation Yrotation
                                   End Site
                                   {
                                        OFFSET -16.63120 -0.60000 1.50291
                                   }
                              }
                         }
                    }
               }
          }
     }
     JOINT LeftUpLeg
     {
          OFFSET 8.94580 -8.66707 0.10165
          CHANNELS 3 Zrotation Xrotation Yrotation
          JOINT LeftLeg
          {
               OFFSET 0.00000 -44.42270 1.37270
               CHANNELS 3 Zrotation Xrotation Yrotation
               JOINT LeftFoot
               {
                    OFFSET -0.25355 -42.09240 -1.46059
                    CHANNELS 3 Zrotation Xrotation Yrotation
                    JOINT LeftToes
                    {
                         OFFSET -0.04000 -4.41509 8.49910
                         CHANNELS 3 Zrotation Xrotation Yrotation
                         End Site
                         {
                              OFFSET 0.08000 -0.04745 9.77979
                         }
                    }
               }
          }
     }
     JOINT RightUpLeg
     {
          OFFSET -8.94580 -8.66707 0.10165
          CHANNELS 3 Zrotation Xrotation Yrotation
          JOINT RightLeg
          {
               OFFSET 0.00000 -44.42270 1.37270
               CHANNELS 3 Zrotation Xrotation Yrotation
               JOINT RightFoot
               {
                    OFFSET 0.25355 -42.09240 -1.46059
                    CHANNELS 3 Zrotation Xrotation Yrotation
                    JOINT RightToes
                    {
                         OFFSET 0.04000 -4.41509 8.49910
                         CHANNELS 3 Zrotation Xrotation Yrotation
                         End Site
                         {
                              OFFSET -0.08000 -0.13745 9.77979
                         }
                    }
               }
          }
     }
}
MOTION
Frames: 9
Frame Time: 0.01667
105.63000 95.45170 -45.09680 0.49639 -4.68713 -48.42990 0.19302 4.12387 4.19539 1.63458 8.18970 7.96919 -16.56370 4.51351 41.45640 0.00000 0.00000 0.00000 -124.20100 -32.52020 -114.84400 -11.75680 45.44890 -77.69700 29.13760 9.67592 3.42974 8.75774 1.41723 8.78439 36.59270 1.06310 114.65500 2.05813 -16.08060 56.79400 -5.64180 9.67993 0.89158 7.40146 -14.82280 4.38948 3.44407 22.39780 -6.08660 -1.94260 2.61257 0.14271 9.12913 -19.55770 -3.97927 -13.76940 -1.44732 4.38668 4.50136 35.03010 -7.84068 14.07250 -29.92880 2.55751 -0.52354 1.07943 5.76305 
105.66300 95.46770 -45.10070 0.40347 -4.55427 -48.48740 0.07509 4.21042 4.25161 1.52233 8.35268 8.07054 -16.26490 4.20952 41.83270 0.00000 0.00000 0.00000 -124.41400 -32.10910 -114.98800 -12.86970 45.35350 -77.02040 29.53620 9.58138 3.06912 8.45193 1.39644 8.85109 37.49820 1.28372 114.70600 2.06230 -15.89440 57.07110 -5.64180 9.67993 0.89158 7.70988 -14.90710 4.47377 3.19504 22.54170 -5.98897 -2.52112 2.16890 0.18752 8.91518 -19.00420 -4.20275 -13.63080 -1.45575 4.51611 4.62590 34.89880 -7.97772 13.92350 -29.76440 2.50577 -0.62796 0.84364 5.70808 
105.67500 95.47020 -45.09760 0.38728 -4.48114 -48.40020 0.10498 4.24924 4.26809 1.61505 8.43271 8.09417 -17.49890 5.43353 41.18490 0.00000 0.00000 0.00000 -124.60800 -32.79970 -115.28300 -12.66620 45.42880 -77.15210 30.02890 9.59109 3.12856 7.43418 1.29819 8.83072 39.22150 1.54670 114.52000 2.90295 -14.92990 57.37080 -5.64180 9.67993 0.89158 7.79375 -15.01830 4.19754 3.04196 22.63810 -5.88554 -1.82461 2.41272 0.13018 8.98562 -19.24660 -3.90105 -13.62990 -1.46768 4.56275 4.86572 34.84610 -8.16658 13.68730 -29.62080 2.43939 -0.71732 0.70947 5.81282 
105.70100 95.46120 -45.11390 0.35701 -4.43459 -48.32230 0.08899 4.28578 4.22391 1.60571 8.50314 8.00190 -17.56570 5.34588 41.17500 0.00000 0.00000 0.00000 -125.13900 -32.51640 -115.62800 -12.55440 45.37770 -77.21520 29.66450 9.57844 3.06327 7.83596 1.34290 8.89161 38.81400 1.63657 114.45200 2.93814 -14.79170 57.52220 -5.64180 9.67993 0.89158 7.75084 -15.07670 4.60462 3.37794 22.61840 -6.39960 -1.71651 2.51764 0.12162 9.04528 -19.43720 -3.69181 -13.59330 -1.48389 4.58332 4.98294 34.88190 -8.26386 13.68530 -29.57720 2.43354 -0.75489 0.62674 5.79764 
105.74900 95.45820 -45.15120 0.25036 -4.43035 -48.13760 0.02713 4.37578 4.20197 1.49598 8.67728 7.95495 -16.25700 4.38500 41.70370 0.00000 0.00000 0.00000 -125.47900 -32.73610 -116.02000 -14.08210 45.25480 -76.09760 29.92020 9.50515 2.78936 7.86021 1.33652 8.81516 39.40420 1.74842 114.51400 3.35282 -14.17680 57.80370 -5.64180 9.67993 0.89158 7.84237 -15.14620 4.26148 3.21877 22.76260 -6.11215 -2.02597 2.23076 0.14577 8.91046 -19.02980 -4.06510 -13.55660 -1.36882 4.44035 5.09632 34.84190 -8.33554 13.52000 -29.45920 2.38541 -0.76848 0.46765 5.49711 
105.82800 95.36840 -45.08850 -0.01027 -4.36105 -48.12880 0.32106 4.42453 4.20498 1.45974 8.81730 8.02641 -15.89600 3.93661 42.13190 0.00000 0.00000 0.00000 -125.51100 -32.60090 -116.25000 -12.27670 45.55110 -77.02200 29.88740 9.53464 2.90252 8.07428 1.36661 8.90151 38.89280 1.39607 114.33800 3.31777 -14.19900 57.72900 -5.64180 9.67993 0.89158 7.96761 -14.89380 4.55450 3.00975 22.58110 -8.33204 6.19649 4.93747 -0.72598 9.33192 -21.31350 2.17081 -13.34340 -1.29857 4.37046 5.01545 35.06920 -7.90349 12.90360 -29.18420 2.22881 -0.99161 -0.24101 4.87738 
105.84900 95.35640 -45.10770 0.11101 -4.22493 -48.07710 0.31066 4.36153 4.18245 1.39969 8.69464 7.99061 -16.04540 4.53842 41.85170 0.00000 0.00000 0.00000 -125.70600 -32.60910 -116.47100 -14.41990 45.17200 -75.21040 30.14000 9.32912 2.12155 8.39132 1.41151 9.02694 38.06320 1.41104 114.28800 2.77330 -14.73460 57.77230 -5.64180 9.67993 0.89158 7.87038 -15.04810 4.78620 3.28870 22.42590 -8.94481 6.98302 5.29722 -0.83655 9.34959 -21.52600 3.15523 -13.34520 -1.55641 4.47945 5.19576 35.15590 -8.15796 13.04590 -29.50760 2.29550 -0.76701 0.00014 4.39651 
105.91100 95.36280 -45.18190 -0.00587 -4.31203 -47.94880 0.22837 4.37901 4.17445 1.30827 8.71911 7.96702 -16.16730 4.69543 41.80240 0.00000 0.00000 0.00000 -125.64300 -32.66130 -116.39500 -14.16820 45.21330 -75.87250 29.89980 9.54943 2.96074 8.53590 1.42571 9.02957 38.36350 1.47804 113.94900 2.97963 -14.42070 57.73070 -5.64180 9.67993 0.89158 7.77582 -15.01470 5.19709 3.64205 22.45070 -9.73933 6.72031 5.01326 -0.78855 9.07564 -21.06330 3.49793 -13.27490 -1.43771 4.31198 5.07990 35.23410 -7.82412 12.71300 -29.28220 2.20219 -0.79857 -0.32543 3.75873 
105.96200 95.34370 -45.22960 -0.08624 -4.20816 -47.76850 0.28923 4.33932 4.17146 1.44522 8.64334 7.95467 -16.36680 5.06457 41.51480 0.00000 0.00000 0.00000 -125.65100 -32.76110 -116.21900 -13.28070 45.34370 -76.25400 29.92370 9.48468 2.70988 8.15339 1.39500 9.08140 38.79540 1.25334 113.56600 3.19411 -14.27380 57.60480 -5.64180 9.67993 0.89158 7.87210 -15.15670 5.47504 3.87240 22.53670 -9.77227 5.74871 4.81332 -0.66977 9.22391 -21.15010 2.43138 -13.14180 -1.47038 4.25801 5.18400 35.27840 -7.98679 12.52040 -29.19860 2.15423 -0.94391 -0.56663 3.85625 
